<svg version="1.1" xmlns="http://www.w3.org/2000/svg" style="display: block;" viewBox="0 0 1993 2048" width="835" height="858" preserveAspectRatio="none">
<path transform="translate(0,0)" fill="rgb(22,244,250)" d="M 1266.85 359.292 C 1316.09 343.292 1368.53 339.72 1419.48 348.893 C 1431.77 351.071 1450.36 357.405 1459.01 358.686 C 1474 357.258 1535.53 390.38 1549.66 399.566 C 1622.53 446.915 1673.43 537.406 1680.13 623.709 C 1680.63 630.116 1681.35 641.361 1680.26 647.723 L 1679.38 648.112 C 1676.7 641.547 1678 640.107 1677.01 633.965 C 1676.73 640.902 1676.59 648.63 1675.96 655.468 L 1676.16 682.559 C 1677.56 676.199 1677.4 669.704 1677.53 663.177 C 1682.94 681.53 1679.88 701.655 1673.94 719.624 C 1670.44 745.58 1670.74 750.361 1659.68 776.073 C 1648.01 802.822 1633.78 831.455 1613.94 853.051 C 1610.64 856.638 1607.02 862.245 1602.29 863.44 C 1591.8 873.615 1578.02 889.675 1566.98 900.966 C 1551.94 916.15 1537.01 931.437 1522.18 946.825 C 1519.86 949.23 1508.08 961.216 1506.63 963.405 C 1505.58 973.775 1472.47 1002.79 1465.64 1011.72 C 1446.77 1036.41 1423.35 1054.05 1401.96 1076.02 C 1399.86 1078.17 1393.31 1085.98 1391.37 1087.07 L 1391.69 1084.79 C 1384.64 1086.55 1384.56 1094.9 1376.49 1095.6 C 1372 1099.42 1349.71 1121.69 1346.83 1126.19 C 1346.71 1127.32 1346.42 1129.99 1345.69 1130.86 C 1334.79 1143.66 1276.7 1209.67 1264.03 1209.84 C 1258.51 1214.92 1219.92 1253.48 1216.82 1258.18 C 1216.13 1272.29 1195.81 1279.85 1190.86 1286.44 C 1160.08 1327.4 1118.34 1359.23 1085.42 1398.36 C 1061.51 1426.06 1026.66 1454.48 1000.44 1480.44 C 989.886 1490.88 935.385 1548.58 927.164 1551.79 L 926.533 1552.51 C 925.567 1561.25 894.565 1592.53 886.526 1598.77 C 872.852 1609.4 862.111 1622.25 849.41 1633.87 C 842.941 1639.78 835.164 1643.84 828.964 1650.06 C 827.692 1651.34 826.452 1652.08 824.876 1652.92 L 824.76 1653.64 C 826.241 1653.17 828.605 1652.09 829.694 1652.52 C 819.009 1660.34 800.538 1676.03 786.704 1674.38 C 781.395 1675.76 765.394 1684.69 759.378 1687.41 C 740.927 1695.71 721.643 1702 701.855 1706.2 C 629.061 1721.67 546.578 1709.29 482.244 1671.51 C 470.811 1664.76 459.773 1657.36 449.185 1649.34 C 444.516 1645.8 435.565 1638.11 431.151 1635.33 L 429.896 1634.55 L 427.627 1635.23 C 427.202 1635.02 424.986 1633.95 424.707 1633.7 C 378.228 1590.87 341.063 1538.88 325.786 1476.68 C 321.702 1460.06 322.722 1444.21 318.594 1429.18 L 318.237 1427.92 C 317.689 1411.47 312.733 1398.69 318.095 1381.56 C 319.198 1378.04 318.367 1374.24 320.224 1370.26 L 321.466 1372.83 C 322.609 1362.88 324.561 1341.15 326.917 1332.38 C 331.218 1316.38 337.725 1294.8 343.347 1279.23 C 343.155 1278.29 342.813 1276.95 343.046 1276.03 C 354.349 1231.73 385.702 1190.83 418.227 1160.31 C 417.881 1162.7 414.266 1168.94 413.117 1172.69 C 426.024 1162.73 454.932 1131.31 467.518 1118.49 L 580.878 1002.45 C 607.498 975.303 634.515 948.297 662 922.102 C 677.029 907.778 691.492 888.798 706.699 874.138 C 740.5 841.554 774.287 808.315 805.809 773.537 C 812.891 765.681 821.184 758.766 828.115 750.797 C 830.851 744.27 837.331 738.677 840.086 732.697 C 837.896 727.548 869.046 699.105 874.485 694.841 L 876.63 695.263 C 878.058 694.453 878.067 694.091 879.211 692.733 C 878.969 692.099 878.885 691.098 878.779 690.377 C 890.003 680.183 901.724 667.228 912.987 656.803 C 920.255 650.075 938.457 627.137 946.406 623.491 L 947.664 625.039 C 952.687 622.149 954.132 620.588 956.21 615.282 L 955.86 613.936 C 956.477 612.961 957.13 612.01 957.82 611.086 C 965.231 601.156 1037.25 528.289 1043.37 527.35 C 1046.92 524.704 1081.07 489.878 1083.47 486.572 L 1082.8 485.682 C 1083.57 481.596 1109.74 457.35 1113.59 456.326 C 1114.92 455.406 1122.5 447.638 1124.59 445.659 L 1149.31 422.709 C 1167.62 405.593 1245.07 350.217 1266.85 359.292 z"/>
<path transform="translate(0,0)" fill="rgb(57,124,135)" d="M 1113.59 456.326 C 1114.92 455.406 1122.5 447.638 1124.59 445.659 L 1149.31 422.709 C 1167.62 405.593 1245.07 350.217 1266.85 359.292 C 1187.04 388.826 1154.76 421.832 1096.21 481.565 L 1031.86 547.331 C 1008.39 571.69 982.116 595.328 958.684 619.635 C 933.318 645.948 909.219 672.118 882.432 697.216 C 863.981 714.504 848.541 734.761 828.115 750.797 C 830.851 744.27 837.331 738.677 840.086 732.697 C 837.896 727.548 869.046 699.105 874.485 694.841 L 876.63 695.263 C 878.058 694.453 878.067 694.091 879.211 692.733 C 878.969 692.099 878.885 691.098 878.779 690.377 C 890.003 680.183 901.724 667.228 912.987 656.803 C 920.255 650.075 938.457 627.137 946.406 623.491 L 947.664 625.039 C 952.687 622.149 954.132 620.588 956.21 615.282 L 955.86 613.936 C 956.477 612.961 957.13 612.01 957.82 611.086 C 965.231 601.156 1037.25 528.289 1043.37 527.35 C 1046.92 524.704 1081.07 489.878 1083.47 486.572 L 1082.8 485.682 C 1083.57 481.596 1109.74 457.35 1113.59 456.326 z"/>
<path transform="translate(0,0)" fill="rgb(47,78,66)" d="M 956.21 615.282 L 955.86 613.936 C 956.477 612.961 957.13 612.01 957.82 611.086 C 965.231 601.156 1037.25 528.289 1043.37 527.35 C 1035.62 536.265 1026.37 546.54 1017.19 553.953 C 995.063 571.809 977.797 597.19 956.21 615.282 z"/>
<path transform="translate(0,0)" fill="rgb(55,93,70)" d="M 879.211 692.733 C 878.969 692.099 878.885 691.098 878.779 690.377 C 890.003 680.183 901.724 667.228 912.987 656.803 C 920.255 650.075 938.457 627.137 946.406 623.491 L 947.664 625.039 C 924.752 646.072 901.948 672.578 879.211 692.733 z"/>
<path transform="translate(0,0)" fill="rgb(47,78,66)" d="M 840.086 732.697 C 837.896 727.548 869.046 699.105 874.485 694.841 L 876.63 695.263 C 868.495 703.749 846.056 725.465 840.086 732.697 z"/>
<path transform="translate(0,0)" fill="rgb(55,93,70)" d="M 1083.47 486.572 L 1082.8 485.682 C 1083.57 481.596 1109.74 457.35 1113.59 456.326 C 1103.77 466.618 1093.73 476.702 1083.47 486.572 z"/>
<path transform="translate(0,0)" fill="rgb(43,177,186)" d="M 1459.01 358.686 C 1474 357.258 1535.53 390.38 1549.66 399.566 C 1622.53 446.915 1673.43 537.406 1680.13 623.709 C 1680.63 630.116 1681.35 641.361 1680.26 647.723 L 1679.38 648.112 C 1676.7 641.547 1678 640.107 1677.01 633.965 C 1676.73 640.902 1676.59 648.63 1675.96 655.468 C 1674.78 649.117 1674.54 640.664 1673.37 633.774 C 1670.62 617.45 1668.38 600.658 1664.9 584.441 C 1654.37 536.133 1629.69 491.871 1598.88 453.665 C 1585.44 436.998 1565.76 423.801 1553.23 408.245 C 1532.52 388.166 1485.58 368.691 1459.01 358.686 z"/>
<path transform="translate(0,0)" fill="rgb(47,78,66)" d="M 1459.01 358.686 C 1474 357.258 1535.53 390.38 1549.66 399.566 C 1622.53 446.915 1673.43 537.406 1680.13 623.709 C 1680.63 630.116 1681.35 641.361 1680.26 647.723 L 1679.38 648.112 C 1676.7 641.547 1678 640.107 1677.01 633.965 C 1673.58 579.182 1664.54 546.55 1636.06 498.604 C 1622.66 476.041 1578.22 414.715 1553.23 408.245 C 1532.52 388.166 1485.58 368.691 1459.01 358.686 z"/>
<path transform="translate(0,0)" fill="rgb(47,78,66)" d="M 1216.82 1258.18 C 1216.13 1272.29 1195.81 1279.85 1190.86 1286.44 C 1160.08 1327.4 1118.34 1359.23 1085.42 1398.36 C 1061.51 1426.06 1026.66 1454.48 1000.44 1480.44 C 989.886 1490.88 935.385 1548.58 927.164 1551.79 C 930.799 1546.33 952.917 1525.27 958.885 1519.33 L 1013.28 1464.23 L 1216.82 1258.18 z"/>
<path transform="translate(0,0)" fill="rgb(17,29,26)" d="M 318.237 1427.92 C 318.991 1425.51 319.773 1424.64 321.107 1422.49 C 330.743 1512.4 364.193 1573.4 429.896 1634.55 L 427.627 1635.23 C 427.202 1635.02 424.986 1633.95 424.707 1633.7 C 378.228 1590.87 341.063 1538.88 325.786 1476.68 C 321.702 1460.06 322.722 1444.21 318.594 1429.18 L 318.237 1427.92 z"/>
<path transform="translate(0,0)" fill="rgb(47,78,66)" d="M 1506.63 963.405 C 1505.58 973.775 1472.47 1002.79 1465.64 1011.72 C 1446.77 1036.41 1423.35 1054.05 1401.96 1076.02 C 1399.86 1078.17 1393.31 1085.98 1391.37 1087.07 L 1391.69 1084.79 C 1384.64 1086.55 1384.56 1094.9 1376.49 1095.6 C 1380.32 1090.98 1389.99 1081.75 1394.54 1077.14 L 1428.33 1042.89 C 1452.76 1018.06 1481.57 986.826 1506.63 963.405 z"/>
<path transform="translate(0,0)" fill="rgb(55,93,70)" d="M 786.704 1674.38 C 797.877 1667.47 806.756 1662.79 817.985 1655.06 C 844.658 1636.69 865.106 1614.35 887.995 1591.98 C 899.255 1580.98 915.278 1562.04 926.533 1552.51 C 925.567 1561.25 894.565 1592.53 886.526 1598.77 C 872.852 1609.4 862.111 1622.25 849.41 1633.87 C 842.941 1639.78 835.164 1643.84 828.964 1650.06 C 827.692 1651.34 826.452 1652.08 824.876 1652.92 L 824.76 1653.64 C 826.241 1653.17 828.605 1652.09 829.694 1652.52 C 819.009 1660.34 800.538 1676.03 786.704 1674.38 z"/>
<path transform="translate(0,0)" fill="rgb(35,57,51)" d="M 343.347 1279.23 C 343.155 1278.29 342.813 1276.95 343.046 1276.03 C 354.349 1231.73 385.702 1190.83 418.227 1160.31 C 417.881 1162.7 414.266 1168.94 413.117 1172.69 C 377.663 1210.18 363.638 1231.49 343.347 1279.23 z"/>
<path transform="translate(0,0)" fill="rgb(55,93,70)" d="M 1346.83 1126.19 C 1346.71 1127.32 1346.42 1129.99 1345.69 1130.86 C 1334.79 1143.66 1276.7 1209.67 1264.03 1209.84 C 1291.03 1182.2 1318.83 1152.69 1346.83 1126.19 z"/>
<path transform="translate(0,0)" fill="rgb(47,78,66)" d="M 1657.56 767.823 C 1657.45 770.596 1657.38 772.056 1656.97 774.845 C 1658.81 775.924 1657.89 775.545 1659.68 776.073 C 1648.01 802.822 1633.78 831.455 1613.94 853.051 C 1610.64 856.638 1607.02 862.245 1602.29 863.44 C 1604.65 859.794 1608.41 854.949 1611.13 851.506 C 1631.78 825.431 1644.76 798.297 1657.56 767.823 z"/>
<path transform="translate(0,0)" fill="rgb(47,78,66)" d="M 1671.38 716.759 L 1672.4 720.023 L 1673.94 719.624 C 1670.44 745.58 1670.74 750.361 1659.68 776.073 C 1657.89 775.545 1658.81 775.924 1656.97 774.845 C 1657.38 772.056 1657.45 770.596 1657.56 767.823 C 1664.42 749.545 1667.54 735.546 1671.38 716.759 z"/>
<path transform="translate(0,0)" fill="rgb(47,78,66)" d="M 318.237 1427.92 C 317.689 1411.47 312.733 1398.69 318.095 1381.56 C 319.198 1378.04 318.367 1374.24 320.224 1370.26 L 321.466 1372.83 C 320.501 1389.92 320.58 1405.32 321.107 1422.49 C 319.773 1424.64 318.991 1425.51 318.237 1427.92 z"/>
<path transform="translate(0,0)" fill="rgb(35,57,51)" d="M 1677.53 663.177 C 1682.94 681.53 1679.88 701.655 1673.94 719.624 L 1672.4 720.023 L 1671.38 716.759 C 1673.6 704.199 1674.93 695.192 1676.16 682.559 C 1677.56 676.199 1677.4 669.704 1677.53 663.177 z"/>
<path transform="translate(0,0)" fill="rgb(73,113,75)" d="M 1214.86 480.324 C 1229.34 467.85 1245.54 457.508 1262.95 449.613 C 1315.08 425.928 1381.09 418.905 1435.12 439.218 C 1463.98 445.571 1508.06 476.233 1529.27 498.128 C 1533.27 502.511 1537.56 506.887 1540.85 511.804 C 1543.09 514.308 1543.86 515.243 1545.76 517.996 C 1547.95 521.05 1550.97 525.006 1552.77 528.184 C 1558.99 538.105 1564.84 547.445 1569.54 558.26 C 1589.79 603.674 1598.5 649.059 1589.77 698.438 C 1587.98 708.558 1586.37 718.841 1582.68 728.477 C 1581.13 734.473 1577.61 744.395 1574.82 749.885 C 1554.38 791.563 1537.54 812.133 1505.02 845.234 C 1480.71 869.97 1456.27 895.18 1431.92 919.942 L 1249.78 1104.78 L 1049.69 1307.84 L 995.891 1362.48 C 988.08 1370.45 975.623 1383.99 967.574 1391.06 C 943.164 1418.21 911.497 1447.7 885.599 1474.56 C 864.412 1496.73 843.011 1518.7 821.399 1540.46 C 808.336 1553.65 789.754 1573.35 774.859 1583.92 C 753.016 1599.43 712.097 1620.54 686.013 1624.29 C 684.142 1625.07 680.369 1625.8 678.315 1626.16 C 623.307 1635.79 560.293 1623.87 513.979 1593.15 C 507.16 1590.38 489.382 1576.03 483.335 1570.39 C 433.676 1524.05 408.798 1477.23 404.745 1409.77 C 403.308 1393.25 405.45 1375.08 407.795 1358.7 C 409.27 1345.53 414.191 1329.41 418.364 1316.76 C 419.253 1312.36 419.667 1311.45 421.606 1307.38 C 435.596 1267.52 470.867 1231.85 499.765 1201.34 C 501.892 1198.39 510.114 1190.3 512.982 1187.47 C 573.713 1127.52 631.986 1062.67 695.125 1005.51 C 699.078 996.129 796.397 900.604 810.217 886.641 L 1037.88 655.673 L 1143.13 548.43 C 1159.97 531.283 1196.3 492.385 1214.86 480.324 z"/>
<path transform="translate(0,0)" fill="rgb(35,57,51)" d="M 937.371 1415.01 C 946.973 1407.35 964.546 1385.89 974.581 1375.75 L 1086.02 1262.08 L 1524.07 818.442 C 1530.48 812.018 1536.15 805.107 1541.13 798.088 C 1546.32 790.778 1568.5 751.585 1573.52 748.242 L 1574.82 749.885 C 1554.38 791.563 1537.54 812.133 1505.02 845.234 C 1480.71 869.97 1456.27 895.18 1431.92 919.942 L 1249.78 1104.78 L 1049.69 1307.84 L 995.891 1362.48 C 988.08 1370.45 975.623 1383.99 967.574 1391.06 C 957.552 1393.84 943.564 1418.02 937.371 1415.01 z"/>
<path transform="translate(0,0)" fill="rgb(47,78,66)" d="M 1214.86 480.324 C 1212.32 488.615 1178.95 519.4 1170.89 527.164 C 1152.77 544.972 1134.89 563.025 1117.26 581.318 C 1114.43 584.259 1105.41 592.556 1104.73 595.382 C 1067.4 631.998 1030.31 670.636 993.439 707.697 C 987.96 711.682 979.871 720.637 974.847 725.644 C 964.274 736.183 953.208 746.849 942.901 757.6 C 929.001 772.098 919.998 788.633 903.341 800.908 C 897.759 805.021 890.738 814.998 885.186 819.595 C 876.044 827.741 869.089 839.957 858.968 845.324 C 844.484 853.005 832.11 873.324 821.143 884.288 C 805.436 899.529 791.68 916.651 775.601 931.465 C 771.373 935.361 770.897 932.637 766.049 938.052 C 755.283 950.078 739.368 973.722 725.973 981.341 C 726.105 979.714 728.518 977.484 729.855 975.883 C 726.098 976.328 718.331 982.23 717.987 986.559 L 721.683 987.334 L 721.825 988.378 C 714.487 994.699 704.186 1002.11 695.125 1005.51 C 699.078 996.129 796.397 900.604 810.217 886.641 L 1037.88 655.673 L 1143.13 548.43 C 1159.97 531.283 1196.3 492.385 1214.86 480.324 z"/>
<path transform="translate(0,0)" fill="rgb(47,78,66)" d="M 937.371 1415.01 C 943.564 1418.02 957.552 1393.84 967.574 1391.06 C 943.164 1418.21 911.497 1447.7 885.599 1474.56 C 864.412 1496.73 843.011 1518.7 821.399 1540.46 C 808.336 1553.65 789.754 1573.35 774.859 1583.92 C 753.016 1599.43 712.097 1620.54 686.013 1624.29 C 695.341 1617.46 702.475 1621.58 706.679 1616.25 C 704.334 1616.11 703.316 1616.45 701.063 1617.12 L 700.958 1616.44 C 706.315 1614.36 717.502 1611 721.931 1608.48 C 741.497 1597.37 767.643 1583.16 784.21 1568.42 C 808.274 1547.01 829.12 1523.46 852.454 1501.4 C 859.46 1494.77 866.655 1487.61 873.217 1480.53 C 884.747 1465.51 897.688 1453.12 911.31 1440.08 C 918.668 1433.03 928.827 1420.16 937.371 1415.01 z"/>
<path transform="translate(0,0)" fill="rgb(52,92,91)" d="M 409.833 1400.99 C 409.479 1435.48 426.441 1483.03 444.61 1512.37 C 450.862 1522.47 470.548 1547.56 479.257 1556.53 C 486.773 1564.28 507.136 1581.18 515.904 1587.08 C 510.431 1589.03 480.294 1560.99 473.961 1555.8 C 474.992 1567.1 511.808 1586.64 514.216 1592.22 L 513.979 1593.15 C 507.16 1590.38 489.382 1576.03 483.335 1570.39 C 433.676 1524.05 408.798 1477.23 404.745 1409.77 C 406.437 1412.02 405.306 1411.29 407.94 1412.3 C 409.773 1409.28 409.538 1404.87 409.833 1400.99 z"/>
<path transform="translate(0,0)" fill="rgb(47,78,66)" d="M 1569.54 558.26 C 1589.79 603.674 1598.5 649.059 1589.77 698.438 C 1587.98 708.558 1586.37 718.841 1582.68 728.477 C 1577.91 713.977 1590.85 688.447 1590.18 673.886 C 1589.4 656.926 1585.56 637.575 1584.42 620.355 C 1584.06 614.996 1579.39 603.584 1579.32 599.325 C 1579.04 583.876 1572.78 578.562 1567.66 566.113 C 1569.84 563.156 1569.5 561.94 1569.54 558.26 z"/>
<path transform="translate(0,0)" fill="rgb(47,78,66)" d="M 499.765 1201.34 C 501.072 1209.16 492.955 1211.77 488.719 1217.66 C 481.085 1228.27 472.538 1238.16 464.121 1248.16 L 465.82 1244.38 L 465.233 1243.33 C 456.967 1248.85 452.646 1266.09 445.611 1274.15 C 437.345 1283.64 430.506 1299.13 421.606 1307.38 C 435.596 1267.52 470.867 1231.85 499.765 1201.34 z"/>
<path transform="translate(0,0)" fill="rgb(47,78,66)" d="M 1435.12 439.218 C 1463.98 445.571 1508.06 476.233 1529.27 498.128 C 1527.22 500.005 1526 500.881 1524.65 503.347 C 1516.74 496.455 1513.66 487.264 1504.46 480.696 C 1496.36 474.914 1435.38 439.535 1435.12 439.218 z"/>
<path transform="translate(0,0)" fill="rgb(55,93,70)" d="M 1104.73 595.382 C 1102.67 602.895 1052.13 650.194 1042.81 659.768 C 1034.7 668.101 1001.41 704.017 993.439 707.697 C 1030.31 670.636 1067.4 631.998 1104.73 595.382 z"/>
<path transform="translate(0,0)" fill="rgb(47,78,66)" d="M 407.795 1358.7 C 408.973 1358.84 411.535 1359.08 412.555 1359.37 C 410.51 1374.8 409.899 1385.15 409.833 1400.99 C 409.538 1404.87 409.773 1409.28 407.94 1412.3 C 405.306 1411.29 406.437 1412.02 404.745 1409.77 C 403.308 1393.25 405.45 1375.08 407.795 1358.7 z"/>
<path transform="translate(0,0)" fill="rgb(35,57,51)" d="M 1548.37 529.008 C 1550.06 528.375 1550.95 528.421 1552.77 528.184 C 1558.99 538.105 1564.84 547.445 1569.54 558.26 C 1569.5 561.94 1569.84 563.156 1567.66 566.113 C 1560.98 552.406 1555.85 542.253 1548.37 529.008 z"/>
<path transform="translate(0,0)" fill="rgb(35,57,51)" d="M 418.364 1316.76 C 419.38 1326.88 414.676 1348.7 412.555 1359.37 C 411.535 1359.08 408.973 1358.84 407.795 1358.7 C 409.27 1345.53 414.191 1329.41 418.364 1316.76 z"/>
<path transform="translate(0,0)" fill="rgb(35,57,51)" d="M 1524.65 503.347 C 1526 500.881 1527.22 500.005 1529.27 498.128 C 1533.27 502.511 1537.56 506.887 1540.85 511.804 C 1543.09 514.308 1543.86 515.243 1545.76 517.996 C 1541.55 516.244 1541.85 515.546 1538.19 516.274 C 1533.86 513.643 1532.37 511.438 1529.08 507.636 L 1524.65 503.347 z"/>
<path transform="translate(0,0)" fill="rgb(47,78,66)" d="M 1538.19 516.274 C 1541.85 515.546 1541.55 516.244 1545.76 517.996 C 1547.95 521.05 1550.97 525.006 1552.77 528.184 C 1550.95 528.421 1550.06 528.375 1548.37 529.008 C 1544.6 524.599 1541.67 520.927 1538.19 516.274 z"/>
<path transform="translate(0,0)" fill="rgb(22,244,250)" d="M 931.343 1203.9 C 929.023 1202.83 929.851 1203.66 928.753 1201.52 C 932.976 1191.1 988.206 1138.54 998.705 1128.11 L 1108.55 1019.29 C 1126.01 1001.67 1143.2 983.8 1160.55 965.982 C 1170.82 955.439 1180 941.886 1193.21 934.489 C 1196.52 932.637 1198.97 933.066 1202.36 934.297 C 1204.96 937.464 1203.97 937.529 1203.83 942.995 C 1208.99 966.906 1206.37 1017.44 1206.52 1043.06 C 1206.97 1047.25 1207.29 1050.02 1207.25 1054.21 C 1200.51 1060.04 1160.1 1096.01 1155.14 1096.5 C 1152.56 1098.76 1150.68 1100.12 1148.84 1103.05 C 1147.95 1106.2 1146.93 1108.94 1144.65 1111.39 C 1125.43 1132.09 1105.27 1150.32 1087.93 1172.82 C 1082.29 1180.13 1069.93 1190.98 1063.06 1197.69 C 1051.05 1210.22 1036.94 1221.86 1025.1 1234.23 C 991.609 1269.21 955.784 1301.89 923.362 1337.81 C 916.723 1345.17 908.091 1351.8 901.143 1359.01 C 881.055 1377.68 855.196 1407.76 827.434 1413.69 C 825.783 1412.72 826.111 1413.19 825.06 1411.76 C 776.658 1428.61 725.36 1428.59 680.244 1401.25 C 670.881 1395.58 663.277 1387.76 654.504 1381.59 L 653.142 1380.64 L 650.875 1381.23 C 626.643 1365.81 607.676 1317.09 602.896 1289.48 C 600.999 1278.52 603.7 1254.46 605.43 1242.75 C 605.44 1242.43 605.449 1242.11 605.459 1241.79 C 607.641 1209.1 623.037 1175.77 645.025 1152.03 C 642.624 1157.68 641.52 1157.52 639.469 1164.86 C 687.393 1107.11 745.596 1057.74 795.065 1001.17 C 801.845 993.413 810.43 987.746 817.535 979.323 C 821.13 978.127 826.229 975.642 829.394 978.184 L 829.118 980.794 C 827.615 1006.78 828.232 1033.81 828.139 1059.89 C 828.118 1065.63 827.986 1088.39 828.85 1092.89 C 829.434 1100.04 825.099 1105.64 820.471 1110.78 C 806.623 1126.17 790.615 1140.76 776.034 1155.38 C 757.37 1174.1 735.537 1188.87 720.717 1211.06 C 720.035 1212.08 720.859 1211.19 718.92 1213.19 C 713.619 1220.39 707.228 1228.61 702.745 1236.2 L 701.024 1241.6 C 695.568 1263.07 696.055 1278.07 704.543 1298.67 L 705.561 1300.04 C 707.866 1303.19 713.664 1313.51 715.802 1315.33 C 728.756 1326.36 755.197 1340.02 772.377 1340.14 C 775.468 1339.94 777.229 1339.31 780.226 1338.56 C 780.817 1337.06 782.023 1334.34 783.454 1333.59 C 796.437 1326.79 807.362 1320.45 818.704 1310.9 C 832.11 1300.12 841.833 1284.91 853.763 1272.86 C 868.326 1258.16 884.293 1245.14 897.354 1228.88 C 902.133 1222.93 909.444 1215.44 916.551 1212.3 L 920.92 1214.61 C 924.69 1211.05 927.83 1207.68 931.343 1203.9 z"/>
<path transform="translate(0,0)" fill="rgb(57,124,135)" d="M 817.535 979.323 C 821.13 978.127 826.229 975.642 829.394 978.184 L 829.118 980.794 C 820.59 979.855 743.658 1063.37 731.453 1075.67 C 676.049 1131.5 628.631 1165.24 608.001 1244.53 L 607.464 1249.42 C 607.069 1246.16 606.696 1245.72 605.43 1242.75 C 605.44 1242.43 605.449 1242.11 605.459 1241.79 C 607.641 1209.1 623.037 1175.77 645.025 1152.03 C 642.624 1157.68 641.52 1157.52 639.469 1164.86 C 687.393 1107.11 745.596 1057.74 795.065 1001.17 C 801.845 993.413 810.43 987.746 817.535 979.323 z"/>
<path transform="translate(0,0)" fill="rgb(47,78,66)" d="M 645.025 1152.03 C 642.624 1157.68 641.52 1157.52 639.469 1164.86 C 623.386 1179.55 608.796 1218.7 607.933 1239.78 C 607.875 1241.36 607.898 1242.95 608.001 1244.53 L 607.464 1249.42 C 607.069 1246.16 606.696 1245.72 605.43 1242.75 C 605.44 1242.43 605.449 1242.11 605.459 1241.79 C 607.641 1209.1 623.037 1175.77 645.025 1152.03 z"/>
<path transform="translate(0,0)" fill="rgb(47,78,66)" d="M 931.343 1203.9 C 929.023 1202.83 929.851 1203.66 928.753 1201.52 C 932.976 1191.1 988.206 1138.54 998.705 1128.11 L 1108.55 1019.29 C 1126.01 1001.67 1143.2 983.8 1160.55 965.982 C 1170.82 955.439 1180 941.886 1193.21 934.489 C 1196.52 932.637 1198.97 933.066 1202.36 934.297 C 1204.96 937.464 1203.97 937.529 1203.83 942.995 L 1202.15 945.12 L 1200.93 944.58 C 1200.69 940.939 1200.67 939.635 1199.77 936.149 L 1198.09 935.653 L 1195.69 937.175 C 1189.51 941.093 1176.45 956.13 1170.54 962.296 C 1159.56 973.651 1148.48 984.905 1137.3 996.057 L 931.343 1203.9 z"/>
<path transform="translate(0,0)" fill="rgb(47,78,66)" d="M 825.06 1411.76 C 869.775 1392 892.302 1360.85 926.028 1327.15 C 969.726 1283.79 1013.11 1240.12 1056.17 1196.13 L 1058.53 1199.55 C 1062.96 1199.02 1058.41 1197.4 1063.06 1197.69 C 1051.05 1210.22 1036.94 1221.86 1025.1 1234.23 C 991.609 1269.21 955.784 1301.89 923.362 1337.81 C 916.723 1345.17 908.091 1351.8 901.143 1359.01 C 881.055 1377.68 855.196 1407.76 827.434 1413.69 C 825.783 1412.72 826.111 1413.19 825.06 1411.76 z"/>
<path transform="translate(0,0)" fill="rgb(47,78,66)" d="M 780.226 1338.56 C 780.817 1337.06 782.023 1334.34 783.454 1333.59 C 796.437 1326.79 807.362 1320.45 818.704 1310.9 C 832.11 1300.12 841.833 1284.91 853.763 1272.86 C 868.326 1258.16 884.293 1245.14 897.354 1228.88 C 902.133 1222.93 909.444 1215.44 916.551 1212.3 L 920.92 1214.61 C 899.135 1236.87 876.89 1259 854.71 1280.89 C 834.767 1300.56 808.837 1332.98 780.226 1338.56 z"/>
<path transform="translate(0,0)" fill="rgb(52,92,91)" d="M 1195.69 937.175 L 1198.09 935.653 L 1199.77 936.149 C 1200.67 939.635 1200.69 940.939 1200.93 944.58 L 1202.15 945.12 L 1203.83 942.995 C 1208.99 966.906 1206.37 1017.44 1206.52 1043.06 C 1204.64 1052.97 1205.57 1052.48 1196.09 1056.38 C 1201.89 1040.76 1195.12 980.924 1198.03 960.797 C 1198.54 957.265 1198.36 942.323 1197.97 938.939 L 1195.69 937.175 z"/>
<path transform="translate(0,0)" fill="rgb(52,92,91)" d="M 828.85 1092.89 C 829.434 1100.04 825.099 1105.64 820.471 1110.78 C 806.623 1126.17 790.615 1140.76 776.034 1155.38 C 757.37 1174.1 735.537 1188.87 720.717 1211.06 C 720.035 1212.08 720.859 1211.19 718.92 1213.19 C 719.087 1212.69 719.16 1211.18 719.211 1210.58 C 717.515 1210.37 715.874 1210.07 714.212 1209.67 C 716.873 1206.33 720.886 1201.95 723.979 1198.88 C 752.946 1170.18 780.642 1140.25 809.96 1111.92 C 816.403 1105.69 823.012 1099.66 828.85 1092.89 z"/>
<path transform="translate(0,0)" fill="rgb(52,92,91)" d="M 690.73 1281.52 C 698.008 1287.97 697.589 1288.33 702.104 1297.46 C 702.712 1297.79 703.952 1298.53 704.543 1298.67 L 705.561 1300.04 C 707.866 1303.19 713.664 1313.51 715.802 1315.33 C 728.756 1326.36 755.197 1340.02 772.377 1340.14 C 734.252 1348.44 697.362 1319.12 690.73 1281.52 z"/>
<path transform="translate(0,0)" fill="rgb(52,92,91)" d="M 1056.17 1196.13 C 1061.23 1190.55 1066.5 1185.14 1071.87 1179.86 C 1097.51 1154.69 1122.49 1127.47 1148.84 1103.05 C 1147.95 1106.2 1146.93 1108.94 1144.65 1111.39 C 1125.43 1132.09 1105.27 1150.32 1087.93 1172.82 C 1082.29 1180.13 1069.93 1190.98 1063.06 1197.69 C 1058.41 1197.4 1062.96 1199.02 1058.53 1199.55 L 1056.17 1196.13 z"/>
<path transform="translate(0,0)" fill="rgb(17,29,26)" d="M 605.43 1242.75 C 606.696 1245.72 607.069 1246.16 607.464 1249.42 C 602.697 1289.99 615.532 1335.26 640.948 1367.13 C 644.721 1371.89 648.794 1376.4 653.142 1380.64 L 650.875 1381.23 C 626.643 1365.81 607.676 1317.09 602.896 1289.48 C 600.999 1278.52 603.7 1254.46 605.43 1242.75 z"/>
<path transform="translate(0,0)" fill="rgb(35,57,51)" d="M 695.298 1241.07 C 696.801 1241.22 699.638 1241.6 701.024 1241.6 C 695.568 1263.07 696.055 1278.07 704.543 1298.67 C 703.952 1298.53 702.712 1297.79 702.104 1297.46 C 697.589 1288.33 698.008 1287.97 690.73 1281.52 C 689.781 1268.38 689.843 1253.26 695.298 1241.07 z"/>
<path transform="translate(0,0)" fill="rgb(47,78,66)" d="M 1206.52 1043.06 C 1206.97 1047.25 1207.29 1050.02 1207.25 1054.21 C 1200.51 1060.04 1160.1 1096.01 1155.14 1096.5 C 1159.4 1091.32 1191.92 1059.2 1196.09 1056.38 C 1205.57 1052.48 1204.64 1052.97 1206.52 1043.06 z"/>
<path transform="translate(0,0)" fill="rgb(47,78,66)" d="M 714.212 1209.67 C 715.874 1210.07 717.515 1210.37 719.211 1210.58 C 719.16 1211.18 719.087 1212.69 718.92 1213.19 C 713.619 1220.39 707.228 1228.61 702.745 1236.2 C 703.55 1231.19 704.024 1229.14 703.543 1224.01 C 705.516 1219.7 711.035 1213.19 714.212 1209.67 z"/>
<path transform="translate(0,0)" fill="rgb(47,78,66)" d="M 703.543 1224.01 C 704.024 1229.14 703.55 1231.19 702.745 1236.2 L 701.024 1241.6 C 699.638 1241.6 696.801 1241.22 695.298 1241.07 C 698.133 1233.71 699.487 1230.65 703.543 1224.01 z"/>
<path transform="translate(0,0)" fill="rgb(22,244,250)" d="M 1292.03 563.564 C 1305.72 546.714 1352.49 565.765 1368.64 572.355 C 1387.38 581.574 1401.8 587.491 1415.62 603.961 C 1449.51 644.859 1465.11 668.961 1457.93 722.688 L 1457.93 723.479 C 1465.18 745.95 1456.59 768.453 1449.14 788.78 C 1436.5 816.253 1422.8 830.891 1402.32 852.462 C 1383.87 871.903 1362.99 887.293 1344.31 906.461 C 1342.24 908.636 1341.58 909.839 1341.59 912.877 L 1349.36 905.313 L 1349.98 905.956 C 1346.42 910.598 1326.72 929.864 1321.95 933.417 L 1320.87 932.433 C 1324.95 928.604 1327.71 926.094 1327.81 920.154 C 1313.41 931.367 1253.61 999.46 1243.56 1003.31 C 1241.76 1002.99 1241.96 1003.22 1240.42 1002.4 C 1240.29 1001.89 1239.78 1000.09 1239.76 999.056 C 1238.99 963.388 1238.28 927.193 1239.99 891.571 C 1240.63 890.772 1241.27 889.974 1241.91 889.176 C 1247.12 884.125 1254.82 876.713 1259.19 871.243 L 1258.02 868.917 C 1260.54 863.739 1280.25 844.358 1285.62 839.53 C 1301.76 825.009 1314.02 809.665 1328.43 793.737 C 1342.05 778.678 1355.88 769.73 1365.82 750.544 C 1372.44 737.761 1368.56 721.786 1371.58 712.716 L 1373.94 711.594 C 1373.11 667.371 1324.95 638.133 1283.25 648.329 L 1284.91 649.229 C 1282.59 652.026 1277.91 650.693 1274.5 653.456 C 1259.02 666.022 1244.34 680.122 1230.51 694.478 C 1223.81 701.434 1215.4 713.044 1207.46 717.198 L 1206.62 716.434 C 1209.48 711.112 1221.51 698.723 1221.29 694.868 C 1215.34 699.581 1208.79 706.644 1203.3 712.123 C 1177.22 738.183 1152.42 765.458 1125.61 790.804 C 1120.46 807.283 1099.39 818.384 1095.58 826.416 C 1094.07 832.977 1056.06 872.649 1049.45 875.863 C 1048.74 876.625 1046.22 879.251 1045.82 879.948 C 1042.23 885.204 1025.75 903.318 1020.3 905.429 L 1018.85 905.248 C 1008.78 913.651 995.596 931.961 983.051 936.811 C 978.55 940.879 974.137 945.044 969.815 949.303 C 970.024 951.928 969.074 954.557 968.395 957.206 C 970.874 954.865 971.835 953.34 974.839 952.274 C 974.648 952.686 974.469 953.104 974.264 953.51 C 972.812 956.388 893.807 1036.73 887.849 1041.58 C 884.279 1044.49 877.843 1045.96 873.484 1047.47 C 869.707 1043.82 864.505 1040.88 866.178 1035.7 C 867.97 1035.39 867.295 1035.46 869.017 1035.34 L 870.176 1035.27 C 873.271 999.11 866.495 965.139 868.73 929.946 C 869.301 920.956 910.41 881.7 918.852 875.938 L 919.774 876.945 L 919.207 882.626 C 935.162 866.706 943.761 861.231 959.175 842.947 C 965.672 829.843 972.017 828.308 978.338 818.264 L 977.565 816.655 C 978.446 811.699 1035.36 756.096 1042.46 750.878 L 1043.31 751.584 C 1054.68 744.099 1103.59 694.209 1110.46 683.597 C 1110.58 678.833 1114.47 675.654 1117.64 672.561 C 1133.86 656.704 1149.1 639.805 1165.32 623.909 C 1169.72 619.595 1174.1 614.638 1179.29 611.352 L 1181.8 612.042 C 1184.16 611.444 1202.32 594.153 1204.67 591.477 C 1204.33 591.138 1204.55 591.442 1204.07 590.077 C 1208.03 586.277 1212.52 583.75 1218.05 583.258 C 1226.8 580.221 1236.65 571.952 1247.38 573.581 C 1259.9 567.991 1278.45 564.509 1292.03 563.564 z"/>
<path transform="translate(0,0)" fill="rgb(64,152,163)" d="M 1218.05 583.258 C 1226.8 580.221 1236.65 571.952 1247.38 573.581 C 1210.18 587.754 1187.1 616.373 1159.42 643.055 C 1132.62 668.89 1107.12 695.835 1081.43 722.761 C 1061.63 743.035 1040.85 762.288 1020.91 782.837 C 1004.09 800.158 977.703 829.108 959.175 842.947 C 965.672 829.843 972.017 828.308 978.338 818.264 L 977.565 816.655 C 978.446 811.699 1035.36 756.096 1042.46 750.878 L 1043.31 751.584 C 1054.68 744.099 1103.59 694.209 1110.46 683.597 C 1110.58 678.833 1114.47 675.654 1117.64 672.561 C 1133.86 656.704 1149.1 639.805 1165.32 623.909 C 1169.72 619.595 1174.1 614.638 1179.29 611.352 L 1181.8 612.042 C 1184.16 611.444 1202.32 594.153 1204.67 591.477 C 1204.33 591.138 1204.55 591.442 1204.07 590.077 C 1208.03 586.277 1212.52 583.75 1218.05 583.258 z"/>
<path transform="translate(0,0)" fill="rgb(47,78,66)" d="M 1110.46 683.597 C 1110.58 678.833 1114.47 675.654 1117.64 672.561 C 1133.86 656.704 1149.1 639.805 1165.32 623.909 C 1169.72 619.595 1174.1 614.638 1179.29 611.352 L 1181.8 612.042 C 1176.4 618.625 1173.43 620.049 1167.97 625.818 C 1149.03 645.817 1129.32 663.393 1110.46 683.597 z"/>
<path transform="translate(0,0)" fill="rgb(47,78,66)" d="M 978.338 818.264 L 977.565 816.655 C 978.446 811.699 1035.36 756.096 1042.46 750.878 L 1043.31 751.584 C 1028.9 771.299 994.757 798.795 978.338 818.264 z"/>
<path transform="translate(0,0)" fill="rgb(47,78,66)" d="M 1204.67 591.477 C 1204.33 591.138 1204.55 591.442 1204.07 590.077 C 1208.03 586.277 1212.52 583.75 1218.05 583.258 C 1213.64 586.074 1209.18 588.815 1204.67 591.477 z"/>
<path transform="translate(0,0)" fill="rgb(47,78,66)" d="M 873.484 1047.47 C 869.707 1043.82 864.505 1040.88 866.178 1035.7 C 867.97 1035.39 867.295 1035.46 869.017 1035.34 L 870.176 1035.27 C 873.271 999.11 866.495 965.139 868.73 929.946 C 869.301 920.956 910.41 881.7 918.852 875.938 L 919.774 876.945 L 919.207 882.626 C 912.167 891.777 904.453 900.389 896.129 908.39 C 889.117 915.046 879 922.01 873.744 930.069 C 871.467 933.56 872.75 1032.94 872.512 1044.78 C 890.306 1033.23 908.214 1010.96 923.94 996.005 C 939.457 981.253 953.761 963.487 969.815 949.303 C 970.024 951.928 969.074 954.557 968.395 957.206 C 970.874 954.865 971.835 953.34 974.839 952.274 C 974.648 952.686 974.469 953.104 974.264 953.51 C 972.812 956.388 893.807 1036.73 887.849 1041.58 C 884.279 1044.49 877.843 1045.96 873.484 1047.47 z"/>
<path transform="translate(0,0)" fill="rgb(57,124,135)" d="M 983.051 936.811 C 993.359 923.661 1005.03 912.769 1016.71 900.928 L 1062.53 854.341 C 1073.9 842.871 1085.16 831.94 1096.52 820.64 C 1106.95 810.278 1113.57 801.283 1125.61 790.804 C 1120.46 807.283 1099.39 818.384 1095.58 826.416 C 1094.07 832.977 1056.06 872.649 1049.45 875.863 C 1048.74 876.625 1046.22 879.251 1045.82 879.948 C 1042.23 885.204 1025.75 903.318 1020.3 905.429 L 1018.85 905.248 C 1008.78 913.651 995.596 931.961 983.051 936.811 z"/>
<path transform="translate(0,0)" fill="rgb(55,93,70)" d="M 1095.58 826.416 C 1094.07 832.977 1056.06 872.649 1049.45 875.863 C 1052.17 871.934 1054.85 868.75 1058.3 865.424 C 1071.31 852.859 1082.38 838.803 1095.58 826.416 z"/>
<path transform="translate(0,0)" fill="rgb(55,93,70)" d="M 1018.85 905.248 C 1025.5 899.133 1039.09 884.489 1045.82 879.948 C 1042.23 885.204 1025.75 903.318 1020.3 905.429 L 1018.85 905.248 z"/>
<path transform="translate(0,0)" fill="rgb(55,93,70)" d="M 1327.81 920.154 L 1372.86 874.527 C 1400.59 846.626 1427 823.27 1444.21 786.974 C 1445.79 787.513 1447.66 788.065 1449.14 788.78 C 1436.5 816.253 1422.8 830.891 1402.32 852.462 C 1383.87 871.903 1362.99 887.293 1344.31 906.461 C 1342.24 908.636 1341.58 909.839 1341.59 912.877 L 1349.36 905.313 L 1349.98 905.956 C 1346.42 910.598 1326.72 929.864 1321.95 933.417 L 1320.87 932.433 C 1324.95 928.604 1327.71 926.094 1327.81 920.154 z"/>
<path transform="translate(0,0)" fill="rgb(52,92,91)" d="M 1398.96 597.361 C 1407.11 599.744 1409.18 605.307 1415.62 603.961 C 1449.51 644.859 1465.11 668.961 1457.93 722.688 C 1456.44 713.903 1456.11 703.964 1454.22 693.951 C 1446.56 653.389 1429.08 625.276 1398.96 597.361 z"/>
<path transform="translate(0,0)" fill="rgb(35,57,51)" d="M 1259.19 871.243 L 1258.02 868.917 C 1260.54 863.739 1280.25 844.358 1285.62 839.53 C 1301.76 825.009 1314.02 809.665 1328.43 793.737 C 1342.05 778.678 1355.88 769.73 1365.82 750.544 C 1372.44 737.761 1368.56 721.786 1371.58 712.716 L 1373.94 711.594 C 1376.34 733.351 1372.9 750.094 1358.92 767.55 C 1345.32 784.515 1329.06 800.984 1313.84 816.501 C 1295.87 834.99 1277.65 853.239 1259.19 871.243 z"/>
<path transform="translate(0,0)" fill="rgb(47,78,66)" d="M 1221.29 694.868 C 1239.64 673.797 1256.39 656.672 1283.25 648.329 L 1284.91 649.229 C 1282.59 652.026 1277.91 650.693 1274.5 653.456 C 1259.02 666.022 1244.34 680.122 1230.51 694.478 C 1223.81 701.434 1215.4 713.044 1207.46 717.198 L 1206.62 716.434 C 1209.48 711.112 1221.51 698.723 1221.29 694.868 z"/>
<path transform="translate(0,0)" fill="rgb(55,93,70)" d="M 1292.03 563.564 C 1305.72 546.714 1352.49 565.765 1368.64 572.355 C 1365.58 573.429 1365.08 573.15 1363.05 575.344 C 1336.08 563.83 1320.22 563.846 1292.03 563.564 z"/>
<path transform="translate(0,0)" fill="rgb(47,78,66)" d="M 1368.64 572.355 C 1387.38 581.574 1401.8 587.491 1415.62 603.961 C 1409.18 605.307 1407.11 599.744 1398.96 597.361 C 1398.12 596.925 1388.41 589.999 1386.91 588.985 C 1378.75 583.505 1371.78 579.791 1363.05 575.344 C 1365.08 573.15 1365.58 573.429 1368.64 572.355 z"/>
<path transform="translate(0,0)" fill="rgb(64,118,100)" d="M 1240.42 1002.4 C 1240.29 1001.89 1239.78 1000.09 1239.76 999.056 C 1238.99 963.388 1238.28 927.193 1239.99 891.571 C 1240.63 890.772 1241.27 889.974 1241.91 889.176 C 1242.25 896.125 1241.57 901.861 1241.74 908.6 C 1242.31 931.662 1242.99 954.676 1241.62 977.74 C 1241.29 983.359 1241.3 997.408 1240.42 1002.4 z"/>
<path transform="translate(0,0)" fill="rgb(47,78,66)" d="M 1457.93 723.479 C 1465.18 745.95 1456.59 768.453 1449.14 788.78 C 1447.66 788.065 1445.79 787.513 1444.21 786.974 C 1453.94 763.095 1456.28 748.493 1457.93 723.479 z"/>
<path transform="translate(0,0)" fill="rgb(47,78,66)" d="M 561.034 1143.96 L 561.794 1145.07 C 553.419 1157.44 518.561 1191.08 506.306 1202.96 L 505.946 1202.74 C 507.154 1199.03 554.298 1150.9 561.034 1143.96 z"/>
<path transform="translate(0,0)" fill="rgb(47,78,66)" d="M 696.465 1010.02 C 695.484 1017.76 671.088 1036.64 663.71 1044 L 662.885 1042.98 C 663.81 1039.55 691.557 1014.34 696.465 1010.02 z"/>
<path transform="translate(0,0)" fill="rgb(55,93,70)" d="M 1202.73 719.946 L 1202.77 721.32 C 1199.41 726.99 1182.33 744.405 1176.09 747.884 L 1176.04 747.75 C 1176.76 744.712 1198.57 724.076 1202.73 719.946 z"/>
<path transform="translate(0,0)" fill="rgb(47,78,66)" d="M 1138.52 786.041 L 1138.59 787.437 C 1133.58 795.134 1130.12 796.941 1122.87 802.463 L 1122.78 801.704 C 1123.7 798.646 1135.24 788.952 1138.52 786.041 z"/>
<path transform="translate(0,0)" fill="rgb(22,244,250)" d="M 1437.91 1089.47 C 1437.82 1086.53 1437.26 1083.8 1438.9 1081.63 C 1453.51 1082.98 1470.51 1086.09 1485.46 1088.09 L 1584.83 1101.24 C 1600.41 1097.29 1643.73 1110.28 1653.52 1106.72 C 1647.4 1104.76 1595.65 1098.34 1595.86 1098.63 C 1602.99 1097.56 1650.66 1101.01 1658.75 1106.18 C 1660.46 1107.27 1660.94 1108.43 1661.67 1110.19 C 1661.7 1114.97 1659.19 1118.38 1655.72 1121.38 C 1651.48 1125.03 1639.96 1137.47 1635.75 1138.97 C 1626.6 1150.58 1614.29 1159.94 1604.75 1171.29 C 1612.42 1185.64 1620.79 1192.13 1627.69 1204.08 C 1630.84 1208.97 1643.6 1228.31 1645.53 1232.57 C 1649.45 1237.97 1657.23 1256.37 1659.31 1263.15 C 1675.08 1303.92 1685.88 1346.12 1682.28 1390.18 C 1681.93 1394.48 1683.26 1406.55 1681.31 1409.6 C 1680.8 1416.37 1680.36 1432.17 1679.16 1437.66 C 1678.18 1444.52 1673.67 1473.14 1670.12 1477.92 C 1670.75 1472.04 1672.95 1469.6 1672.49 1463.35 L 1671.6 1462.76 C 1672.21 1470.6 1671.51 1467.42 1669.84 1472.82 C 1662.64 1496.13 1658.61 1515.45 1645.51 1536.78 C 1638.32 1548.48 1634.06 1566.19 1624.79 1577.49 C 1615.43 1587.55 1594.62 1616.05 1584.63 1622.76 L 1586.99 1623.71 C 1583.12 1629.39 1579.72 1632.36 1574.51 1636.51 L 1573.8 1636.52 C 1576.79 1633.15 1579.75 1629.74 1582.68 1626.31 L 1582.25 1625.38 C 1573.84 1633.05 1541.05 1662.61 1532.17 1664.47 C 1524.67 1677.24 1507.16 1682.37 1494.45 1687.32 C 1487.91 1689.86 1475.08 1703.66 1466.68 1697.42 C 1439.22 1707.54 1418.97 1712.89 1389.98 1716.52 C 1312.97 1726.43 1234.9 1709.4 1169.02 1668.31 C 1157.46 1661.04 1143.7 1650.02 1132.82 1641.59 C 1132.66 1641.58 1132.5 1641.57 1132.34 1641.57 C 1131.15 1641.61 1130.88 1641.73 1129.8 1641.53 C 1116.96 1639.2 1049.26 1565.88 1036.85 1553.4 C 1029.27 1545.79 1017.56 1537.48 1011.92 1528.51 C 1011.89 1525.63 1011.52 1527.02 1013.84 1524.51 L 1014.72 1523.77 C 1027.78 1512.62 1039.46 1499.68 1050.01 1486.18 C 1054.94 1479.87 1068.05 1466.43 1075.84 1464.64 C 1097.26 1481.25 1118.26 1505.75 1137.82 1524.87 C 1144.34 1531.25 1182.48 1563.19 1184.02 1567.33 C 1189.04 1572.99 1196.42 1579.13 1202.72 1583.38 C 1212.97 1586.31 1231.01 1602.33 1241.09 1608.25 C 1246.17 1611.24 1258.89 1614.82 1262.39 1617.85 L 1259.47 1618.26 C 1276.04 1627.03 1318.34 1631.32 1323.39 1635.1 C 1324.85 1635.52 1324.74 1635.58 1326 1635.68 C 1370.86 1638.99 1412.25 1631.83 1452.87 1611.97 C 1461.52 1607.74 1472.93 1602.35 1480.21 1596.33 C 1478.15 1587.85 1486.78 1588.3 1492.55 1583.2 C 1515.05 1563.29 1548.55 1526.56 1562.75 1500.51 C 1591.3 1448.08 1596.53 1388.32 1582.08 1330.9 C 1578.26 1315.71 1572.61 1302.52 1568.43 1287.9 C 1562.45 1277.09 1553.93 1264 1547.39 1253.05 C 1544.82 1250.48 1541.88 1244.85 1539.94 1241.5 C 1536.31 1241.17 1534.88 1242.65 1531.38 1245.01 C 1516.1 1253.53 1482.41 1303.15 1467.85 1298.48 C 1461.45 1283.19 1462.61 1258.48 1459.73 1243.91 C 1453.24 1211.12 1448.75 1178.6 1442.17 1145.81 C 1441.03 1140.12 1441.35 1130.96 1440.3 1124.84 C 1438.59 1114.95 1434.9 1101.6 1435.03 1091.65 L 1437.91 1089.47 z"/>
<path transform="translate(0,0)" fill="rgb(52,92,91)" d="M 1616.28 1197.13 C 1620.03 1199.6 1623.73 1202.91 1627.69 1204.08 C 1630.84 1208.97 1643.6 1228.31 1645.53 1232.57 C 1649.45 1237.97 1657.23 1256.37 1659.31 1263.15 C 1675.08 1303.92 1685.88 1346.12 1682.28 1390.18 C 1681.93 1394.48 1683.26 1406.55 1681.31 1409.6 C 1675.9 1418.49 1680.51 1426.65 1674.71 1433.35 C 1679.46 1361.19 1673.87 1305.24 1641.06 1238.35 C 1634.43 1224.85 1623.81 1211.05 1616.28 1197.13 z"/>
<path transform="translate(0,0)" fill="rgb(47,78,66)" d="M 1659.31 1263.15 C 1653.46 1260.41 1643.2 1239.66 1645.53 1232.57 C 1649.45 1237.97 1657.23 1256.37 1659.31 1263.15 z"/>
<path transform="translate(0,0)" fill="rgb(55,93,70)" d="M 1674.71 1433.35 C 1680.51 1426.65 1675.9 1418.49 1681.31 1409.6 C 1680.8 1416.37 1680.36 1432.17 1679.16 1437.66 C 1678.18 1444.52 1673.67 1473.14 1670.12 1477.92 C 1670.75 1472.04 1672.95 1469.6 1672.49 1463.35 L 1671.6 1462.76 C 1672.21 1470.6 1671.51 1467.42 1669.84 1472.82 C 1662.64 1496.13 1658.61 1515.45 1645.51 1536.78 C 1638.32 1548.48 1634.06 1566.19 1624.79 1577.49 C 1615.43 1587.55 1594.62 1616.05 1584.63 1622.76 L 1586.99 1623.71 C 1583.12 1629.39 1579.72 1632.36 1574.51 1636.51 L 1573.8 1636.52 C 1576.79 1633.15 1579.75 1629.74 1582.68 1626.31 L 1582.25 1625.38 C 1573.84 1633.05 1541.05 1662.61 1532.17 1664.47 C 1524.67 1677.24 1507.16 1682.37 1494.45 1687.32 C 1487.91 1689.86 1475.08 1703.66 1466.68 1697.42 C 1492.6 1686.26 1516.99 1673.48 1539.92 1656.95 C 1611.38 1604.85 1659.37 1526.63 1673.45 1439.32 C 1673.76 1437.04 1674.16 1435.56 1674.71 1433.35 z"/>
<path transform="translate(0,0)" fill="rgb(17,29,26)" d="M 1568.43 1287.9 C 1568.59 1285.41 1568.64 1286.35 1570.54 1283.73 C 1597.27 1339.12 1600.92 1409.48 1580.9 1467.51 C 1562.7 1520.51 1527.24 1565.87 1480.21 1596.33 C 1478.15 1587.85 1486.78 1588.3 1492.55 1583.2 C 1515.05 1563.29 1548.55 1526.56 1562.75 1500.51 C 1591.3 1448.08 1596.53 1388.32 1582.08 1330.9 C 1578.26 1315.71 1572.61 1302.52 1568.43 1287.9 z"/>
<path transform="translate(0,0)" fill="rgb(52,92,91)" d="M 1013.84 1524.51 L 1014.72 1523.77 C 1027.78 1512.62 1039.46 1499.68 1050.01 1486.18 C 1054.94 1479.87 1068.05 1466.43 1075.84 1464.64 C 1097.26 1481.25 1118.26 1505.75 1137.82 1524.87 C 1144.34 1531.25 1182.48 1563.19 1184.02 1567.33 L 1182.96 1567.24 C 1175.99 1561.45 1173.5 1560.25 1164.99 1558.81 C 1159.48 1553.01 1153.32 1547.61 1147.66 1541.95 C 1125.02 1519.28 1102.2 1496.31 1078 1475.37 C 1077 1474.94 1072.52 1475.13 1071.91 1475.74 C 1057.25 1490.65 1042.82 1505.78 1027.71 1520.24 C 1024.05 1523.74 1019.3 1526.66 1016.16 1530.51 L 1015.72 1530.08 C 1015.17 1527.42 1014.93 1527.03 1013.84 1524.51 z"/>
<path transform="translate(0,0)" fill="rgb(17,29,26)" d="M 1531.38 1245.01 C 1516.1 1253.53 1482.41 1303.15 1467.85 1298.48 C 1461.45 1283.19 1462.61 1258.48 1459.73 1243.91 C 1453.24 1211.12 1448.75 1178.6 1442.17 1145.81 C 1441.03 1140.12 1441.35 1130.96 1440.3 1124.84 C 1438.59 1114.95 1434.9 1101.6 1435.03 1091.65 L 1437.91 1089.47 C 1445.55 1132.52 1451.9 1176.17 1459.56 1219.39 C 1463.39 1240.98 1470.12 1276.58 1471.28 1296.91 C 1486.14 1285.28 1512.33 1256.99 1526.2 1242.61 C 1527.81 1243.4 1529.72 1244.43 1531.38 1245.01 z"/>
<path transform="translate(0,0)" fill="rgb(47,78,66)" d="M 1013.84 1524.51 C 1014.93 1527.03 1015.17 1527.42 1015.72 1530.08 L 1016.16 1530.51 C 1056.98 1564.78 1093.66 1607.17 1132.82 1641.59 C 1132.66 1641.58 1132.5 1641.57 1132.34 1641.57 C 1131.15 1641.61 1130.88 1641.73 1129.8 1641.53 C 1116.96 1639.2 1049.26 1565.88 1036.85 1553.4 C 1029.27 1545.79 1017.56 1537.48 1011.92 1528.51 C 1011.89 1525.63 1011.52 1527.02 1013.84 1524.51 z"/>
<path transform="translate(0,0)" fill="rgb(52,92,91)" d="M 1584.83 1101.24 C 1600.41 1097.29 1643.73 1110.28 1653.52 1106.72 C 1647.4 1104.76 1595.65 1098.34 1595.86 1098.63 C 1602.99 1097.56 1650.66 1101.01 1658.75 1106.18 C 1660.46 1107.27 1660.94 1108.43 1661.67 1110.19 C 1661.7 1114.97 1659.19 1118.38 1655.72 1121.38 C 1651.48 1125.03 1639.96 1137.47 1635.75 1138.97 C 1631.51 1139.71 1631.16 1139.87 1627.22 1141.72 C 1637.37 1130.96 1646.73 1121.16 1657.4 1110.95 C 1636.37 1107.08 1607.18 1104.52 1584.83 1101.24 z"/>
<path transform="translate(0,0)" fill="rgb(47,78,66)" d="M 1202.72 1583.38 C 1212.97 1586.31 1231.01 1602.33 1241.09 1608.25 C 1246.17 1611.24 1258.89 1614.82 1262.39 1617.85 L 1259.47 1618.26 C 1276.04 1627.03 1318.34 1631.32 1323.39 1635.1 C 1286.71 1634.57 1250.07 1617.81 1218.31 1601.02 C 1218.23 1600.9 1218.14 1600.78 1218.06 1600.66 C 1214.11 1590.9 1210.32 1590.34 1203.92 1584.49 L 1202.72 1583.38 z"/>
<path transform="translate(0,0)" fill="rgb(47,78,66)" d="M 1627.22 1141.72 C 1631.16 1139.87 1631.51 1139.71 1635.75 1138.97 C 1626.6 1150.58 1614.29 1159.94 1604.75 1171.29 C 1612.42 1185.64 1620.79 1192.13 1627.69 1204.08 C 1623.73 1202.91 1620.03 1199.6 1616.28 1197.13 C 1609.22 1189.82 1603.46 1181.64 1595.21 1173.22 C 1606.09 1162.93 1616.77 1152.43 1627.22 1141.72 z"/>
<path transform="translate(0,0)" fill="rgb(57,124,135)" d="M 1164.99 1558.81 C 1173.5 1560.25 1175.99 1561.45 1182.96 1567.24 L 1184.02 1567.33 C 1189.04 1572.99 1196.42 1579.13 1202.72 1583.38 L 1203.92 1584.49 C 1210.32 1590.34 1214.11 1590.9 1218.06 1600.66 C 1218.14 1600.78 1218.23 1600.9 1218.31 1601.02 C 1194.2 1587.16 1183.69 1578.78 1164.99 1558.81 z"/>
<path transform="translate(0,0)" fill="rgb(47,78,66)" d="M 1539.94 1241.5 L 1547.51 1242.86 C 1551.55 1248.34 1554.82 1252.65 1557.68 1258.89 C 1561.18 1263.4 1568.73 1278.27 1570.54 1283.73 C 1568.64 1286.35 1568.59 1285.41 1568.43 1287.9 C 1562.45 1277.09 1553.93 1264 1547.39 1253.05 C 1544.82 1250.48 1541.88 1244.85 1539.94 1241.5 z"/>
<path transform="translate(0,0)" fill="rgb(47,78,66)" d="M 1526.2 1242.61 C 1536.67 1231.51 1538.49 1228.99 1547.51 1242.86 L 1539.94 1241.5 C 1536.31 1241.17 1534.88 1242.65 1531.38 1245.01 C 1529.72 1244.43 1527.81 1243.4 1526.2 1242.61 z"/>
<path transform="translate(0,0)" fill="rgb(22,244,250)" d="M 552.151 358.745 C 555.452 357.103 573.489 352.51 578.364 351.382 C 633.231 338.684 684.444 339.82 738.771 353.646 C 748.824 354.724 753.844 358.131 763.022 357.154 C 766.257 355.707 773.57 358.072 777.698 359.797 C 831.527 382.287 882.476 416.978 919.411 462.356 C 919.862 462.91 919.763 464.196 919.752 464.916 C 930.745 478.92 944.102 489.993 956.858 502.216 C 965.012 510.03 980.11 520.051 977.937 532.155 L 979.58 532.727 C 976.597 540.313 934.082 581.341 925.799 587.349 L 924.864 586.862 L 920.447 589.257 C 918.233 591.466 919.503 590.755 916.539 591.541 C 903.356 587.203 875.907 553.168 864.037 542.113 C 835.37 515.412 809.734 487.369 776.891 465.195 C 769.623 460.289 753.92 454.662 748.542 448.623 C 745.138 446.489 734.156 442.104 730.218 440.495 C 724.963 441.489 682.826 432.849 679.885 428.737 L 680.691 427.606 C 663.431 423.808 627.177 426.264 609.956 429.488 L 614.046 430.268 L 613.93 431.452 C 608.584 435.552 595.873 439.867 589.511 436.467 L 588.946 434.261 L 586.279 434.656 C 571.631 443.416 551.667 447.718 536.839 458.25 C 535.165 462.957 529.43 464.344 524.986 467.446 C 515.632 473.974 506.392 480.616 497.172 487.335 L 495.772 486.611 C 444.424 526.916 413.231 593.135 406.966 657.156 C 404.808 679.214 407.443 682.086 409.901 703.03 C 409.776 699.47 409.106 697.759 410.498 695.024 C 414.812 706.25 414.432 731.334 420.332 744.457 C 424.624 754.003 426.416 769.023 431.555 778.918 C 450.28 816.673 480.918 848.78 509.702 879.287 C 523.315 893.715 545.893 909.785 559.446 924.736 C 560.597 926.007 560.573 927.598 560.61 929.127 C 563.104 933.843 571.475 934.642 570.14 941.088 C 566.776 957.333 520.998 1000.59 507.593 1003.54 C 498.406 1001.64 494.368 991.608 483.417 984.909 C 482.5 984.75 480.869 984.405 480.269 983.718 C 462.718 963.637 443.181 945.82 423.937 927.454 C 420.415 924.092 416.366 919.796 413.84 915.678 L 414.646 914.492 C 409.37 907.737 402.884 902.083 396.601 896.243 L 395.375 897.26 C 378.643 882.424 320.337 791.819 329.604 770.877 C 328.514 762.328 323.306 751.3 322.689 745.355 C 320.896 728.091 319.062 712.891 316.263 695.714 L 315.417 698.855 C 307.208 689.295 314.668 648.413 317.421 637.023 L 319.119 636.051 C 320.806 630.305 321.379 619.541 321.692 613.312 L 319.61 611.052 C 319.425 601.06 324.43 592.696 326.767 583.49 C 337.954 539.43 361.164 497.19 389.728 461.993 C 397.311 452.648 429.079 416.786 440.469 415.575 C 442.967 414.202 444.872 412.47 447.121 410.681 C 450.903 402.218 491.584 376.241 501.101 376.305 C 503.771 375.887 509.038 372.425 511.3 370.641 C 513.291 364.933 534.092 358.464 540.25 359.465 C 544.423 358.8 547.949 358.839 552.151 358.745 z"/>
<path transform="translate(0,0)" fill="rgb(64,152,163)" d="M 540.25 359.465 C 544.423 358.8 547.949 358.839 552.151 358.745 C 546.594 361.318 540.542 364.311 534.93 366.602 C 439.433 405.582 380.914 468.89 341.4 563.875 C 324.041 613.398 320.32 660.285 323 712.438 C 323.85 728.994 330.102 751.593 334.329 767.45 C 354.429 842.859 397.114 893.004 452.322 945.471 C 470.586 962.828 487.41 982.482 507.393 1000.16 C 520.371 989.411 552.041 956.665 564.56 943.45 C 560.339 939.037 556.017 936.271 551.608 931.894 L 491.123 870.944 C 482.568 862.172 470.802 851.233 463.053 842.233 C 435.177 809.611 408.051 760.593 404.406 716.984 C 398.582 647.313 410.417 574.881 455.733 519.402 C 485.162 483.372 540.308 440.458 586.279 434.656 C 571.631 443.416 551.667 447.718 536.839 458.25 C 535.165 462.957 529.43 464.344 524.986 467.446 C 515.632 473.974 506.392 480.616 497.172 487.335 L 495.772 486.611 C 444.424 526.916 413.231 593.135 406.966 657.156 C 404.808 679.214 407.443 682.086 409.901 703.03 C 409.776 699.47 409.106 697.759 410.498 695.024 C 414.812 706.25 414.432 731.334 420.332 744.457 C 424.624 754.003 426.416 769.023 431.555 778.918 C 450.28 816.673 480.918 848.78 509.702 879.287 C 523.315 893.715 545.893 909.785 559.446 924.736 C 560.597 926.007 560.573 927.598 560.61 929.127 C 563.104 933.843 571.475 934.642 570.14 941.088 C 566.776 957.333 520.998 1000.59 507.593 1003.54 C 498.406 1001.64 494.368 991.608 483.417 984.909 C 482.5 984.75 480.869 984.405 480.269 983.718 C 462.718 963.637 443.181 945.82 423.937 927.454 C 420.415 924.092 416.366 919.796 413.84 915.678 L 414.646 914.492 C 409.37 907.737 402.884 902.083 396.601 896.243 L 395.375 897.26 C 378.643 882.424 320.337 791.819 329.604 770.877 C 328.514 762.328 323.306 751.3 322.689 745.355 C 320.896 728.091 319.062 712.891 316.263 695.714 L 315.417 698.855 C 307.208 689.295 314.668 648.413 317.421 637.023 L 319.119 636.051 C 320.806 630.305 321.379 619.541 321.692 613.312 L 319.61 611.052 C 319.425 601.06 324.43 592.696 326.767 583.49 C 337.954 539.43 361.164 497.19 389.728 461.993 C 397.311 452.648 429.079 416.786 440.469 415.575 C 442.967 414.202 444.872 412.47 447.121 410.681 C 450.903 402.218 491.584 376.241 501.101 376.305 C 503.771 375.887 509.038 372.425 511.3 370.641 C 513.291 364.933 534.092 358.464 540.25 359.465 z"/>
<path transform="translate(0,0)" fill="rgb(47,78,66)" d="M 321.692 613.312 L 319.61 611.052 C 319.425 601.06 324.43 592.696 326.767 583.49 C 337.954 539.43 361.164 497.19 389.728 461.993 C 397.311 452.648 429.079 416.786 440.469 415.575 C 394.455 451.999 348.017 514.781 332.844 571.832 C 328.815 585.234 324.352 599.58 321.692 613.312 z"/>
<path transform="translate(0,0)" fill="rgb(47,78,66)" d="M 409.901 703.03 C 409.776 699.47 409.106 697.759 410.498 695.024 C 414.812 706.25 414.432 731.334 420.332 744.457 C 424.624 754.003 426.416 769.023 431.555 778.918 C 450.28 816.673 480.918 848.78 509.702 879.287 C 523.315 893.715 545.893 909.785 559.446 924.736 C 560.597 926.007 560.573 927.598 560.61 929.127 C 555.03 921.812 547.047 915.265 539.994 909.118 C 500.971 875.108 457.23 830.134 432.114 785.003 C 422.283 767.337 411.179 722.551 409.901 703.03 z"/>
<path transform="translate(0,0)" fill="rgb(47,78,66)" d="M 396.601 896.243 L 395.375 897.26 C 378.643 882.424 320.337 791.819 329.604 770.877 C 339.277 809.083 352.654 838.215 376.227 869.892 C 382.908 878.87 388.555 888.102 396.601 896.243 z"/>
<path transform="translate(0,0)" fill="rgb(35,57,51)" d="M 316.263 695.714 L 315.417 698.855 C 307.208 689.295 314.668 648.413 317.421 637.023 L 319.119 636.051 C 316.417 656.812 313.776 674.751 316.263 695.714 z"/>
<path transform="translate(0,0)" fill="rgb(47,78,66)" d="M 483.417 984.909 C 482.5 984.75 480.869 984.405 480.269 983.718 C 462.718 963.637 443.181 945.82 423.937 927.454 C 420.415 924.092 416.366 919.796 413.84 915.678 L 414.646 914.492 C 435.806 938.049 463.695 960.585 483.417 984.909 z"/>
<path transform="translate(0,0)" fill="rgb(47,78,66)" d="M 447.121 410.681 C 450.903 402.218 491.584 376.241 501.101 376.305 C 486.586 382.753 460.154 400.908 447.121 410.681 z"/>
<path transform="translate(0,0)" fill="rgb(47,78,66)" d="M 536.839 458.25 C 535.165 462.957 529.43 464.344 524.986 467.446 C 515.632 473.974 506.392 480.616 497.172 487.335 L 495.772 486.611 C 510.439 474.63 520.161 466.922 536.839 458.25 z"/>
<path transform="translate(0,0)" fill="rgb(35,57,51)" d="M 511.3 370.641 C 513.291 364.933 534.092 358.464 540.25 359.465 C 529.829 362.974 521.399 366.423 511.3 370.641 z"/>
<path transform="translate(0,0)" fill="rgb(64,152,163)" d="M 738.771 353.646 C 748.824 354.724 753.844 358.131 763.022 357.154 C 766.257 355.707 773.57 358.072 777.698 359.797 C 831.527 382.287 882.476 416.978 919.411 462.356 C 919.862 462.91 919.763 464.196 919.752 464.916 C 930.745 478.92 944.102 489.993 956.858 502.216 C 965.012 510.03 980.11 520.051 977.937 532.155 L 979.58 532.727 C 976.597 540.313 934.082 581.341 925.799 587.349 L 924.864 586.862 L 920.447 589.257 C 918.233 591.466 919.503 590.755 916.539 591.541 C 903.356 587.203 875.907 553.168 864.037 542.113 C 835.37 515.412 809.734 487.369 776.891 465.195 C 769.623 460.289 753.92 454.662 748.542 448.623 C 745.138 446.489 734.156 442.104 730.218 440.495 C 724.963 441.489 682.826 432.849 679.885 428.737 L 680.691 427.606 C 685.78 428.273 691.707 428.913 696.688 429.775 C 701.832 430.114 707.53 430.956 712.601 431.962 C 796.404 448.599 849.87 518.141 907.458 574.712 C 910.345 577.548 914.705 582.249 918.501 583.297 C 924.185 580.747 963.584 538.839 971.604 531.109 C 973.661 529.127 973.019 527.92 972.624 526.057 C 966.718 519.392 961.148 514.349 954.656 508.421 C 925.53 481.824 900.289 451.853 870.436 426.014 C 831.23 392.079 787.166 370.83 738.771 353.646 z"/>
<path transform="translate(0,0)" fill="rgb(47,78,66)" d="M 748.542 448.623 C 808.623 470.69 863.1 544.492 910.519 585.85 C 914.218 589.076 915.684 589.147 920.447 589.257 C 918.233 591.466 919.503 590.755 916.539 591.541 C 903.356 587.203 875.907 553.168 864.037 542.113 C 835.37 515.412 809.734 487.369 776.891 465.195 C 769.623 460.289 753.92 454.662 748.542 448.623 z"/>
<path transform="translate(0,0)" fill="rgb(47,78,66)" d="M 763.022 357.154 C 766.257 355.707 773.57 358.072 777.698 359.797 C 831.527 382.287 882.476 416.978 919.411 462.356 C 919.862 462.91 919.763 464.196 919.752 464.916 C 883.015 424.699 847.095 395.15 797.73 370.884 C 787.734 365.971 773.779 361.863 763.022 357.154 z"/>
<path transform="translate(0,0)" fill="rgb(47,78,66)" d="M 680.691 427.606 C 685.78 428.273 691.707 428.913 696.688 429.775 C 706.394 433.105 721.827 437.234 730.218 440.495 C 724.963 441.489 682.826 432.849 679.885 428.737 L 680.691 427.606 z"/>
<path transform="translate(0,0)" fill="rgb(47,78,66)" d="M 977.937 532.155 L 979.58 532.727 C 976.597 540.313 934.082 581.341 925.799 587.349 L 924.864 586.862 C 938.214 573.984 967.873 545.79 977.937 532.155 z"/>
<path transform="translate(0,0)" fill="rgb(55,93,70)" d="M 609.956 429.488 L 614.046 430.268 L 613.93 431.452 C 608.584 435.552 595.873 439.867 589.511 436.467 L 588.946 434.261 C 594.976 432.558 603.66 430.897 609.956 429.488 z"/>
<path transform="translate(0,0)" fill="rgb(47,78,66)" d="M 794.112 776.755 L 795.27 777.852 C 794.022 781.285 774.673 799.316 771.034 803.007 L 723.523 851.625 C 715.698 859.751 708.985 871.154 697.904 873.878 L 697.474 873.941 C 698.294 869.366 784.766 786.068 794.112 776.755 z"/>
<path transform="translate(0,0)" fill="rgb(47,78,66)" d="M 680.986 892.777 L 681.537 893.999 C 677.98 900.291 664.177 912.287 658.464 918.43 C 635.279 943.358 609.916 966.009 586.002 990.235 C 585.248 989.493 585.715 990.034 584.94 988.372 C 585.885 986.627 598.29 973.571 600.021 972.312 C 613.813 962.29 668.953 897.276 680.986 892.777 z"/>
<path transform="translate(0,0)" fill="rgb(47,78,66)" d="M 565.035 1008.94 C 565.278 1009.67 565.271 1009.48 565.205 1010.55 C 564.7 1018.68 523.026 1055.49 515.112 1062.97 C 516.691 1054.55 556.418 1020.28 565.035 1008.94 z"/>
<path transform="translate(0,0)" fill="rgb(47,78,66)" d="M 503.768 1073.02 L 504.455 1074.36 C 494.098 1085.49 480.137 1098.31 469.025 1109.07 C 468.664 1108.73 468.303 1108.38 467.942 1108.04 C 473.093 1098.97 495.06 1080.04 503.768 1073.02 z"/>
<path transform="translate(0,0)" fill="rgb(47,78,66)" d="M 458.592 1117.96 L 459.267 1118.41 C 457.786 1122.2 436.663 1143.76 432.957 1148.92 C 432.263 1149.89 428.471 1151.58 427.093 1152.11 L 426.501 1151.65 C 433.768 1143.52 450.663 1122.48 458.592 1117.96 z"/>
</svg>